<?xml version="1.0" encoding="utf-8"?>
<!-- Generator: Adobe Illustrator 23.0.1, SVG Export Plug-In . SVG Version: 6.00 Build 0)  -->
<svg version="1.1" id="Layer_1" xmlns="http://www.w3.org/2000/svg" xmlns:xlink="http://www.w3.org/1999/xlink" x="0px" y="0px"
	 viewBox="0 0 660.87 600" style="enable-background:new 0 0 660.87 600;" xml:space="preserve">
<style type="text/css">
	.st0{opacity:0.6;}
	.st1{fill:#E9B956;}
	.st2{fill:#545554;}
	.st3{fill:none;stroke:#545554;stroke-width:6;stroke-linecap:round;stroke-linejoin:round;stroke-miterlimit:10;}
</style>
<g>
	<g>
		<path class="st2" d="M85.46,273.52c-5.84,0-10.58-4.74-10.58-10.58c0-1.33,0.02-2.64,0.07-3.93c0.22-5.84,5.12-10.43,10.97-10.18
			c5.84,0.22,10.4,5.13,10.18,10.97c-0.04,1.04-0.06,2.08-0.06,3.14C96.05,268.78,91.31,273.52,85.46,273.52z"/>
	</g>
	<g>
		<path class="st2" d="M366.4,444.41h-0.56c-2.28,0-4.56-0.06-6.82-0.18c-5.84-0.31-10.32-5.29-10.01-11.13
			c0.31-5.83,5.23-10.31,11.13-10c1.89,0.1,3.79,0.15,5.7,0.15h0.56c5.84,0,10.58,4.74,10.58,10.58
			C376.98,439.67,372.24,444.41,366.4,444.41z M416.05,433.45c-4.04,0-7.89-2.32-9.66-6.24c-2.4-5.33-0.02-11.59,5.31-13.99
			c1.89-0.85,3.78-1.76,5.66-2.73c5.2-2.67,11.58-0.62,14.25,4.58c2.67,5.2,0.62,11.58-4.58,14.25c-2.21,1.13-4.42,2.2-6.64,3.2
			C418.98,433.15,417.5,433.45,416.05,433.45z M310.4,431.23c-1.57,0-3.16-0.35-4.67-1.09c-2.2-1.08-4.38-2.22-6.52-3.42
			c-5.11-2.84-6.94-9.28-4.1-14.39c2.84-5.1,9.28-6.94,14.39-4.1c1.84,1.02,3.7,2,5.58,2.92c5.24,2.58,7.4,8.92,4.82,14.17
			C318.06,429.06,314.31,431.23,310.4,431.23z M265.02,395.68c-2.99,0-5.97-1.26-8.06-3.72c-1.58-1.86-3.12-3.75-4.62-5.69
			c-3.58-4.62-2.73-11.27,1.89-14.85c4.62-3.58,11.27-2.73,14.85,1.89c1.29,1.67,2.63,3.32,3.99,4.92
			c3.79,4.45,3.25,11.13-1.2,14.92C269.88,394.85,267.44,395.68,265.02,395.68z M237.18,345.19c-4.53,0-8.72-2.93-10.11-7.49
			c-0.72-2.35-1.38-4.71-1.98-7.1c-1.43-5.67,2.01-11.42,7.67-12.85c5.66-1.43,11.42,2.01,12.85,7.67c0.51,2.04,1.08,4.07,1.69,6.07
			c1.71,5.59-1.43,11.5-7.02,13.22C239.25,345.04,238.2,345.19,237.18,345.19z M232.04,287.73c-5.83,0-10.57-4.72-10.58-10.56
			c-0.01-2.09-0.08-4.13-0.21-6.13c-0.39-5.83,4.02-10.88,9.85-11.27c5.88-0.43,10.88,4.02,11.27,9.85c0.17,2.48,0.25,5,0.26,7.51
			c0.01,5.85-4.71,10.59-10.56,10.61C232.06,287.73,232.05,287.73,232.04,287.73z M214.1,233.76c-3.07,0-6.12-1.33-8.21-3.9
			c-1.23-1.51-2.54-2.97-3.9-4.37c-4.09-4.17-4.02-10.87,0.15-14.96c4.17-4.09,10.87-4.02,14.96,0.15c1.81,1.85,3.56,3.8,5.19,5.81
			c3.69,4.53,3.01,11.19-1.52,14.89C218.81,232.98,216.45,233.76,214.1,233.76z M104.5,223.73c-2.74,0-5.49-1.06-7.56-3.18
			c-4.09-4.17-4.02-10.87,0.15-14.96c1.89-1.85,3.92-3.63,6.03-5.28c4.61-3.59,11.26-2.77,14.85,1.83
			c3.59,4.61,2.77,11.26-1.83,14.85c-1.49,1.16-2.92,2.41-4.24,3.71C109.85,222.72,107.18,223.73,104.5,223.73z M164.59,206.07
			c-0.52,0-1.04-0.04-1.56-0.12c-1.96-0.29-3.95-0.5-5.91-0.62c-5.83-0.37-10.26-5.4-9.89-11.23c0.37-5.83,5.37-10.24,11.23-9.89
			c2.55,0.16,5.13,0.43,7.67,0.81c5.78,0.86,9.78,6.24,8.92,12.02C174.27,202.29,169.75,206.07,164.59,206.07z"/>
	</g>
	<g>
		<path class="st2" d="M463.13,399.7c-2.66,0-5.32-1-7.38-3c-4.19-4.08-4.28-10.78-0.2-14.96c0.78-0.8,1.55-1.61,2.33-2.43
			c4.01-4.25,10.7-4.45,14.96-0.45c4.25,4.01,4.45,10.7,0.45,14.96c-0.85,0.91-1.71,1.8-2.56,2.68
			C468.64,398.63,465.89,399.7,463.13,399.7z"/>
	</g>
</g>
<g class="st0">
	<polygon class="st1" points="178.38,84.14 178.38,567.39 26.33,520.86 26.33,37.61 	"/>
</g>
<g class="st0">
	<polygon class="st1" points="482.49,84.14 482.49,567.39 330.43,520.86 330.43,37.61 	"/>
</g>
<g>
	<path class="st2" d="M482.49,577.97c-1.04,0-2.09-0.16-3.1-0.46l-148.96-45.58l-148.96,45.58c-2.02,0.61-4.17,0.61-6.19,0
		L23.23,530.98c-4.45-1.36-7.48-5.47-7.48-10.12V37.61c0-3.35,1.59-6.51,4.29-8.51c2.7-2,6.18-2.6,9.39-1.61l148.96,45.58
		L327.34,27.5c2.02-0.62,4.17-0.62,6.19,0l148.96,45.58L631.45,27.5c3.21-0.98,6.7-0.38,9.39,1.61c2.7,1.99,4.29,5.15,4.29,8.51
		v483.25c0,4.65-3.04,8.76-7.48,10.12l-152.06,46.52C484.58,577.81,483.53,577.97,482.49,577.97z M330.43,510.28
		c1.04,0,2.09,0.16,3.1,0.46l148.96,45.58l141.47-43.29V51.92L485.59,94.26c-2.02,0.62-4.17,0.62-6.19,0L330.43,48.68L181.48,94.26
		c-2.02,0.62-4.17,0.62-6.19,0L36.91,51.92v461.12l141.47,43.29l148.96-45.58C328.35,510.44,329.39,510.28,330.43,510.28z"/>
</g>
<g>
	<path class="st2" d="M589.28,378.36c-1.52,0-3.06-0.33-4.52-1.02l-75.84-35.9c-5.28-2.5-7.54-8.81-5.04-14.09
		c2.5-5.28,8.82-7.53,14.09-5.04l75.84,35.9c5.28,2.5,7.54,8.81,5.04,14.09C597.04,376.12,593.24,378.36,589.28,378.36z"/>
</g>
<g>
	<path class="st2" d="M533.41,398.33c-1.52,0-3.06-0.33-4.52-1.02c-5.28-2.5-7.54-8.81-5.04-14.09l35.9-75.84
		c2.5-5.28,8.82-7.53,14.09-5.04c5.28,2.5,7.54,8.81,5.04,14.09l-35.9,75.84C541.18,396.09,537.37,398.33,533.41,398.33z"/>
</g>
</svg>
