<?xml version="1.0" encoding="utf-8"?>
<!-- Generator: Adobe Illustrator 23.0.1, SVG Export Plug-In . SVG Version: 6.00 Build 0)  -->
<svg version="1.1" id="Layer_1" xmlns="http://www.w3.org/2000/svg" xmlns:xlink="http://www.w3.org/1999/xlink" x="0px" y="0px"
	 viewBox="0 0 660.87 600" style="enable-background:new 0 0 660.87 600;" xml:space="preserve">
<style type="text/css">
	.st0{opacity:0.6;}
	.st1{fill:#E9B956;}
	.st2{fill:#545554;}
	.st3{fill:none;stroke:#545554;stroke-width:6;stroke-linecap:round;stroke-linejoin:round;stroke-miterlimit:10;}
</style>
<g class="st0">
	<polygon class="st1" points="330.68,158.41 330.68,388.18 428.41,459.19 391.08,344.3 488.81,273.29 368.01,273.29 	"/>
</g>
<g>
	<path class="st2" d="M428.41,470.7c-2.38,0-4.75-0.73-6.77-2.2l-90.96-66.09l-90.96,66.09c-4.03,2.93-9.5,2.93-13.54,0
		c-4.04-2.93-5.73-8.13-4.18-12.88l34.74-106.93l-90.96-66.09c-4.04-2.93-5.73-8.13-4.18-12.88c1.54-4.75,5.96-7.96,10.95-7.96
		h112.43l34.74-106.93c1.54-4.75,5.96-7.96,10.95-7.96s9.41,3.21,10.95,7.96l34.74,106.93h112.43c4.99,0,9.41,3.21,10.96,7.96
		c1.54,4.74-0.15,9.94-4.18,12.88l-90.96,66.09l34.74,106.93c1.54,4.74-0.15,9.94-4.18,12.88
		C433.16,469.97,430.78,470.7,428.41,470.7z M330.68,376.66c2.38,0,4.75,0.73,6.77,2.2l69.05,50.17l-26.37-81.17
		c-1.54-4.74,0.15-9.94,4.18-12.88l69.05-50.17h-85.35c-4.99,0-9.41-3.21-10.95-7.96l-26.38-81.18l-26.37,81.18
		c-1.54,4.75-5.96,7.96-10.95,7.96H208l69.05,50.17c4.04,2.93,5.73,8.13,4.18,12.88l-26.37,81.17l69.05-50.17
		C325.93,377.4,328.3,376.66,330.68,376.66z"/>
</g>
<g>
	<path class="st2" d="M330.68,115.89c-6.36,0-11.52-5.16-11.52-11.52V37.06c0-6.36,5.16-11.52,11.52-11.52s11.52,5.16,11.52,11.52
		v67.31C342.2,110.73,337.04,115.89,330.68,115.89z"/>
</g>
<g>
	<path class="st2" d="M449.21,217.11c-2.95,0-5.9-1.12-8.14-3.37c-4.5-4.5-4.5-11.79,0-16.29l39.6-39.6c4.5-4.5,11.79-4.5,16.29,0
		c4.5,4.5,4.5,11.79,0,16.29l-39.6,39.6C455.1,215.98,452.16,217.11,449.21,217.11z"/>
</g>
<g>
	<path class="st2" d="M617.7,336.37H510.67c-6.36,0-11.52-5.16-11.52-11.52c0-6.36,5.16-11.52,11.52-11.52H617.7
		c6.36,0,11.52,5.16,11.52,11.52C629.22,331.21,624.07,336.37,617.7,336.37z"/>
</g>
<g>
	<path class="st2" d="M532.19,539.64c-2.95,0-5.89-1.12-8.14-3.37l-48.61-48.61c-4.5-4.5-4.5-11.79,0-16.29
		c4.5-4.5,11.79-4.5,16.29,0l48.61,48.61c4.5,4.5,4.5,11.79,0,16.29C538.08,538.51,535.13,539.64,532.19,539.64z"/>
</g>
<g>
	<path class="st2" d="M330.19,569.52c-6.36,0-11.52-5.16-11.52-11.52v-86.82c0-6.36,5.16-11.52,11.52-11.52s11.52,5.16,11.52,11.52
		V558C341.71,564.36,336.55,569.52,330.19,569.52z"/>
</g>
<g>
	<path class="st2" d="M136.69,526.11c-2.95,0-5.9-1.12-8.14-3.37c-4.5-4.5-4.5-11.79,0-16.29l36.84-36.84c4.5-4.5,11.79-4.5,16.29,0
		c4.5,4.5,4.5,11.79,0,16.29l-36.84,36.84C142.59,524.99,139.64,526.11,136.69,526.11z"/>
</g>
<g>
	<path class="st2" d="M143.43,333.88H46.15c-6.36,0-11.52-5.16-11.52-11.52c0-6.36,5.16-11.52,11.52-11.52h97.29
		c6.36,0,11.52,5.16,11.52,11.52C154.95,328.73,149.79,333.88,143.43,333.88z"/>
</g>
<g>
	<path class="st2" d="M213.18,217.11c-2.95,0-5.9-1.12-8.14-3.37l-58.07-58.07c-4.5-4.5-4.5-11.79,0-16.29
		c4.5-4.5,11.79-4.5,16.29,0l58.07,58.07c4.5,4.5,4.5,11.79,0,16.29C219.07,215.98,216.12,217.11,213.18,217.11z"/>
</g>
</svg>
