<?xml version="1.0" encoding="utf-8"?>
<!-- Generator: Adobe Illustrator 23.0.1, SVG Export Plug-In . SVG Version: 6.00 Build 0)  -->
<svg version="1.1" id="Layer_1" xmlns="http://www.w3.org/2000/svg" xmlns:xlink="http://www.w3.org/1999/xlink" x="0px" y="0px"
	 viewBox="0 0 660.87 600" style="enable-background:new 0 0 660.87 600;" xml:space="preserve">
<style type="text/css">
	.st0{opacity:0.6;}
	.st1{fill:#E9B956;}
	.st2{fill:#545554;}
	.st3{fill:none;stroke:#545554;stroke-width:6;stroke-linecap:round;stroke-linejoin:round;stroke-miterlimit:10;}
	.st4{fill:#FCFCFC;}
</style>
<g>
	<path class="st4" d="M607.86,258.05v179.82c0,36.79-29.83,66.62-66.64,66.62v78.78l-152.51-78.78H256.89
		c-36.79,0-66.62-29.83-66.62-66.62V258.05c0-36.79,29.83-66.62,66.62-66.62h284.34C578.04,191.43,607.86,221.26,607.86,258.05z"/>
	<path class="st2" d="M541.23,593.27c-1.57,0-3.15-0.37-4.59-1.12l-150.35-77.67h-129.4c-42.25,0-76.62-34.37-76.62-76.62V258.05
		c0-42.25,34.37-76.62,76.62-76.62h284.34c42.26,0,76.64,34.37,76.64,76.62v179.82c0,38.86-29.09,71.06-66.64,75.97v69.43
		c0,3.49-1.82,6.73-4.8,8.54C544.83,592.78,543.03,593.27,541.23,593.27z M256.89,201.43c-31.22,0-56.62,25.4-56.62,56.62v179.82
		c0,31.22,25.4,56.62,56.62,56.62h131.83c1.6,0,3.17,0.38,4.59,1.12l137.92,71.25v-62.36c0-5.52,4.48-10,10-10
		c31.23,0,56.64-25.4,56.64-56.62V258.05c0-31.22-25.41-56.62-56.64-56.62H256.89z"/>
</g>
<g>
	<path class="st4" d="M470,88.05v179.82c0,36.79-29.84,66.64-66.64,66.64H250.71L121.7,401.14V334.5h-2.67
		c-36.79,0-66.64-29.84-66.64-66.64V88.05c0-36.79,29.84-66.62,66.64-66.62h284.34C440.16,21.43,470,51.25,470,88.05z"/>
	<path class="st2" d="M121.7,411.14c-1.81,0-3.61-0.49-5.2-1.46c-2.98-1.81-4.8-5.05-4.8-8.54v-56.98
		c-38.83-3.7-69.31-36.5-69.31-76.29V88.05c0-42.25,34.38-76.62,76.64-76.62h284.34c42.26,0,76.64,34.37,76.64,76.62v179.82
		c0,42.26-34.38,76.64-76.64,76.64H253.14l-126.86,65.52C124.85,410.77,123.27,411.14,121.7,411.14z M119.02,31.43
		c-31.23,0-56.64,25.4-56.64,56.62v179.82c0,31.23,25.41,56.64,56.64,56.64h2.67c5.52,0,10,4.48,10,10v50.22l114.43-59.1
		c1.42-0.73,2.99-1.12,4.59-1.12h152.65c31.23,0,56.64-25.41,56.64-56.64V88.05c0-31.22-25.41-56.62-56.64-56.62H119.02z"/>
</g>
<g>
	<path class="st1" d="M491.34,427.4H255.42c-5.52,0-10-4.48-10-10s4.48-10,10-10h235.92c5.52,0,10,4.48,10,10
		S496.87,427.4,491.34,427.4z"/>
</g>
<g>
	<path class="st1" d="M376.28,262.59H140.36c-5.52,0-10-4.48-10-10s4.48-10,10-10h235.92c5.52,0,10,4.48,10,10
		S381.81,262.59,376.28,262.59z"/>
</g>
<g>
	<path class="st1" d="M337.31,193.15h-16.59c-5.52,0-10-4.48-10-10s4.48-10,10-10h16.59c5.52,0,10,4.48,10,10
		S342.83,193.15,337.31,193.15z"/>
</g>
<g>
	<path class="st1" d="M257.49,193.15H140.36c-5.52,0-10-4.48-10-10s4.48-10,10-10h117.13c5.52,0,10,4.48,10,10
		S263.02,193.15,257.49,193.15z"/>
</g>
<g>
	<path class="st1" d="M376.28,123.71h-28.61c-5.52,0-10-4.48-10-10s4.48-10,10-10h28.61c5.52,0,10,4.48,10,10
		S381.81,123.71,376.28,123.71z"/>
</g>
<g>
	<path class="st1" d="M290.66,123.71h-150.3c-5.52,0-10-4.48-10-10s4.48-10,10-10h150.3c5.52,0,10,4.48,10,10
		S296.19,123.71,290.66,123.71z"/>
</g>
</svg>
