<?xml version="1.0" encoding="utf-8"?>
<!-- Generator: Adobe Illustrator 23.0.1, SVG Export Plug-In . SVG Version: 6.00 Build 0)  -->
<svg version="1.1" id="Layer_1" xmlns="http://www.w3.org/2000/svg" xmlns:xlink="http://www.w3.org/1999/xlink" x="0px" y="0px"
	 viewBox="0 0 660.87 600" style="enable-background:new 0 0 660.87 600;" xml:space="preserve">
<style type="text/css">
	.st0{opacity:0.6;}
	.st1{fill:#E9B956;}
	.st2{fill:#545554;}
	.st3{fill:none;stroke:#545554;stroke-width:6;stroke-linecap:round;stroke-linejoin:round;stroke-miterlimit:10;}
</style>
<g class="st0">
	<path class="st1" d="M191.52,331.49c-6.82-17.23-10.57-25.02-10.57-44.68c0-61.81,37.06-114.97,90.17-138.47
		c0,0,21.87,13.78,32.55,33.26c0,0-44.01,11.1-67.21,53.2s-7.22,87.58-7.22,87.58l-22.17,29.87c0,0-31.37,24.99-44.38,65.97
		l-30.95-1.58C131.75,416.65,150.35,342.86,191.52,331.49z"/>
</g>
<g class="st0">
	<path class="st1" d="M469.35,330.49c6.82-17.23,10.57-24.02,10.57-43.68c0-61.81-37.06-114.97-90.17-138.47
		c0,0-21.87,13.78-32.55,33.26c0,0,44.01,11.1,67.21,53.2c23.2,42.1,7.22,87.58,7.22,87.58l22.17,29.87c0,0,31.37,24.99,44.38,65.97
		l30.95-1.58C529.12,416.65,510.52,341.86,469.35,330.49z"/>
</g>
<g>
	<path class="st2" d="M330.42,401.67c-66.09,0-119.86-53.77-119.86-119.86c0-66.09,53.77-119.86,119.86-119.86
		c66.09,0,119.86,53.77,119.86,119.86C450.28,347.9,396.51,401.67,330.42,401.67z M330.42,183.66c-54.12,0-98.16,44.03-98.16,98.15
		s44.03,98.16,98.16,98.16s98.15-44.03,98.15-98.16S384.55,183.66,330.42,183.66z"/>
</g>
<g>
	<path class="st2" d="M505.51,477.51H155.36c-5.99,0-10.85-4.86-10.85-10.85c0-59.66,30-115.56,80.24-149.53
		c4.97-3.36,11.71-2.05,15.07,2.91c3.36,4.97,2.05,11.71-2.91,15.07c-41.2,27.86-66.94,72.39-70.31,120.7h327.7
		c-3.17-46.77-26.75-89.15-65.8-117.51c-4.85-3.52-5.92-10.31-2.4-15.16c3.52-4.85,10.3-5.93,15.16-2.4
		c47.03,34.16,75.11,88.71,75.11,145.92C516.36,472.65,511.5,477.51,505.51,477.51z"/>
</g>
<g>
	<path class="st2" d="M505.51,477.51H155.36c-5.99,0-10.85-4.86-10.85-10.85s4.86-10.85,10.85-10.85h350.15
		c6,0,10.85,4.86,10.85,10.85S511.5,477.51,505.51,477.51z"/>
</g>
<g>
	<path class="st2" d="M202.42,102.66c-66.09,0-119.86,53.77-119.86,119.86c0,14.18,2.47,27.79,7.02,40.42
		c2.52,7.04,5.69,13.76,9.43,20.12c20.83,35.46,59.39,59.32,103.41,59.32c6.2,0,12.29-0.47,18.23-1.38c0.01,0,0.01,0,0.01,0
		c9.61-5.17,16.25-5.89,16.25-5.89s-2.31-7.43-4.6-19.09c-9.43,3.03-19.47,4.66-29.89,4.66c-54.12,0-98.16-44.04-98.16-98.16
		s44.04-98.15,98.16-98.15c37.95,0,70.94,21.65,87.26,53.24c6.74-1.75,14.19-2.94,22.39-3.48
		C293.44,132.07,251.3,102.66,202.42,102.66z"/>
</g>
<g>
	<path class="st2" d="M174.07,396.52c-2.91,6.52-5.68,13.73-8.21,21.71H27.36c-6,0-10.86-4.86-10.86-10.86
		c0-56.76,27.16-110.12,73.08-144.43c2.34-1.75,4.72-3.45,7.16-5.1c4.97-3.36,11.71-2.05,15.07,2.91
		c3.36,4.97,2.06,11.71-2.91,15.07c-3.4,2.3-6.7,4.72-9.89,7.24C63.6,311.07,41.68,352.2,38.59,396.52H174.07z"/>
</g>
<g>
	<path class="st2" d="M174.07,396.52c-2.91,6.52-5.68,13.73-8.21,21.71H27.36c-6,0-10.86-4.86-10.86-10.86
		c0-5.99,4.86-10.85,10.86-10.85H174.07z"/>
</g>
<g>
	<path class="st2" d="M458.41,102.66c-49.45,0-91.99,30.09-110.3,72.92c7.86,1.14,15.05,2.79,21.61,4.88
		c15.78-33.13,49.6-56.09,88.69-56.09c54.12,0,98.15,44.03,98.15,98.15s-44.03,98.16-98.15,98.16c-8.77,0-17.27-1.16-25.36-3.33
		c-2.09,12.74-4.56,20.95-4.56,20.95c1.78,0.46,3.51,0.96,5.21,1.51c7.98,1.69,16.24,2.57,24.71,2.57
		c44.02,0,82.58-23.86,103.41-59.32c3.74-6.36,6.91-13.08,9.43-20.12c4.55-12.63,7.02-26.24,7.02-40.42
		C578.27,156.43,524.5,102.66,458.41,102.66z"/>
</g>
<g>
	<path class="st2" d="M644.34,407.37c0,6-4.85,10.86-10.85,10.86h-135.9c-1.86-7.3-4.18-14.62-7.07-21.71h131.75
		c-3.02-44.59-24.6-85.2-60.45-113.46c-1.75-1.38-3.53-2.73-5.35-4.05c-4.85-3.52-5.92-10.31-2.4-15.16
		c3.52-4.85,10.3-5.92,15.16-2.4c0.68,0.49,1.35,0.99,2.02,1.49C617.06,297.18,644.34,350.98,644.34,407.37z"/>
</g>
<g>
	<path class="st2" d="M644.34,407.37c0,6-4.85,10.86-10.85,10.86h-135.9c-1.86-7.3-4.18-14.62-7.07-21.71h142.97
		C639.49,396.52,644.34,401.38,644.34,407.37z"/>
</g>
</svg>
